<?xml version="1.0" standalone="no"?><!DOCTYPE svg PUBLIC "-//W3C//DTD SVG 1.1//EN" "http://www.w3.org/Graphics/SVG/1.1/DTD/svg11.dtd"><svg t="1621847178672" class="icon" viewBox="0 0 1024 1024" version="1.1" xmlns="http://www.w3.org/2000/svg" p-id="10471" xmlns:xlink="http://www.w3.org/1999/xlink" width="200" height="200"><defs><style type="text/css"></style></defs><path d="M559.314 151.05C474.618 86.434 318.919 36.883 318.919 36.883s38.924 63.501 46.247 134.924C189.846 228.343 63.958 382.869 63.958 564.936c0 229.807 200.752 416.173 448.351 416.173s448.274-186.366 448.274-416.173C960.583 349.734 784.783 172.863 559.314 151.05zM512.307 916.507c-212.13 0-384.703-158.956-384.703-354.332 0-150.355 108.602-284.744 262.713-334.443 17.279-5.578 28.306-22.463 26.446-40.532-2.01-19.683-4.189-38.711-9.334-56.123 44.081 18.295 89.571 43.313 125.916 71.036 5.691 4.358 12.49 7.024 19.628 7.701 196.09 18.97 343.965 170.452 343.965 352.36C896.937 757.552 724.4 916.507 512.307 916.507z" p-id="10472" fill="#ffffff"></path><path d="M540.185 400.958c-33.969 9.409-49.431 20.975-80.508 27.8 34.471 21.035 62 93.464 26.181 162.443 32.542 0 51.975-1.753 81.511-1.753C588.96 551.968 589.732 444.279 540.185 400.958z" p-id="10473" fill="#ffffff"></path><path d="M755.568 373.987c-33.855 9.427-49.316 21.052-80.508 27.8 34.548 20.975 62 93.484 26.333 162.443 32.467 0 51.821-1.735 81.513-1.735C804.42 525.017 805.192 417.403 755.568 373.987z" p-id="10474" fill="#ffffff"></path></svg>