<svg id="图层_1" data-name="图层 1" xmlns="http://www.w3.org/2000/svg" viewBox="0 0 406.96 385.19"><defs><style>.cls-1{fill:#fff;}</style></defs><title>bilibili</title><path class="cls-1" d="M1235.68,467.48c-1.36-57.05-50.94-67.92-50.94-67.92s-38.72-.31-89.09-.57l36.53-35.4s5.89-7.25-4.07-15.4-10.5-4.53-13.86-2.26c-3,2.06-46.85,45.18-54.68,52.89-24.15-.09-49.38-.16-73.31-.17h19.68s-52.53-51.82-55.88-54.08-3.9-5.89-13.86,2.26-4.07,15.4-4.07,15.4l37.58,36.42h2.09c-41.69,0-77.61.27-94.09.91-53,14.94-48.91,67.92-48.91,67.92s.68,113.44-.07,170.84c5.7,57.4,50,66.57,50,66.57s17.66.34,30.56.34C910.65,709,911.67,727,931.71,727s22.41-21.74,22.41-21.74,146.73-.68,159-.68c.67,6.11,3.73,22.75,23.77,22.41s21.4-23.77,21.4-23.77,6.79-.68,27.17,0c47.55-8.83,50.26-64.53,50.26-64.53S1235,524.54,1235.68,467.48Zm-40.91,181.6a16.12,16.12,0,0,1-15.92,16.3H889.63a16.12,16.12,0,0,1-15.92-16.3V457.52a16.12,16.12,0,0,1,15.92-16.3h289.22a16.12,16.12,0,0,1,15.92,16.3Z" transform="translate(-828.73 -341.78)"/><polygon class="cls-1" points="75.44 169.84 160.34 153.54 166.8 185.46 82.57 201.76 75.44 169.84"/><polygon class="cls-1" points="339.67 169.84 254.76 153.54 248.31 185.46 332.54 201.76 339.67 169.84"/><path class="cls-1" d="M995.53,590.75s18.68,33.63,39.39-10.87c20,43.48,42.12,11.53,42.12,11.53l12.56,8.17s-23.43,37.7-54.34,9.17c-26.15,28.53-53.66-9.1-53.66-9.1Z" transform="translate(-828.73 -341.78)"/></svg>