<?xml version="1.0" encoding="UTF-8" standalone="no"?>
<!-- Generator: Adobe Illustrator 22.1.0, SVG Export Plug-In . SVG Version: 6.00 Build 0)  -->

<svg
   xmlns:dc="http://purl.org/dc/elements/1.1/"
   xmlns:cc="http://creativecommons.org/ns#"
   xmlns:rdf="http://www.w3.org/1999/02/22-rdf-syntax-ns#"
   xmlns:svg="http://www.w3.org/2000/svg"
   xmlns="http://www.w3.org/2000/svg"
   xmlns:sodipodi="http://sodipodi.sourceforge.net/DTD/sodipodi-0.dtd"
   xmlns:inkscape="http://www.inkscape.org/namespaces/inkscape"
   version="1.1"
   id="Layer_1"
   x="0px"
   y="0px"
   viewBox="0 0 24 24"
   style="enable-background:new 0 0 24 24;"
   xml:space="preserve"
   sodipodi:docname="login-lock.svg"
   inkscape:version="0.92.2 (5c3e80d, 2017-08-06)"><metadata
     id="metadata19"><rdf:RDF><cc:Work
         rdf:about=""><dc:format>image/svg+xml</dc:format><dc:type
           rdf:resource="http://purl.org/dc/dcmitype/StillImage" /></cc:Work></rdf:RDF></metadata><defs
     id="defs17" /><sodipodi:namedview
     pagecolor="#ffffff"
     bordercolor="#666666"
     borderopacity="1"
     objecttolerance="10"
     gridtolerance="10"
     guidetolerance="10"
     inkscape:pageopacity="0"
     inkscape:pageshadow="2"
     inkscape:window-width="731"
     inkscape:window-height="700"
     id="namedview15"
     showgrid="false"
     inkscape:zoom="9.8333333"
     inkscape:cx="12"
     inkscape:cy="12"
     inkscape:window-x="2375"
     inkscape:window-y="803"
     inkscape:window-maximized="0"
     inkscape:current-layer="Layer_1" /><title
     id="title2">login-lock</title><g
     id="g12"
     style="fill:#ffffff;fill-opacity:1"><path
       d="M3.75,24.004c-1.241,0-2.25-1.009-2.25-2.25v-19.5c0-1.241,1.009-2.25,2.25-2.25h10.5c1.241,0,2.25,1.009,2.25,2.25V7.5   c0,0.414-0.336,0.75-0.75,0.75S15,7.913,15,7.5V2.254c0-0.414-0.336-0.75-0.75-0.75H3.75C3.336,1.504,3,1.84,3,2.254v19.5   c0,0.414,0.336,0.75,0.75,0.75h6c0.414,0,0.75,0.336,0.75,0.75s-0.336,0.75-0.75,0.75H3.75z"
       id="path4"
       style="fill:#ffffff;fill-opacity:1" /><path
       d="M5.625,13.129c-0.62,0-1.125-0.505-1.125-1.125c0-0.573,0.425-1.05,0.992-1.117c0.044-0.008,0.088-0.012,0.133-0.012   c0.62,0,1.125,0.505,1.125,1.125C6.75,12.622,6.245,13.129,5.625,13.129z"
       id="path6"
       style="fill:#ffffff;fill-opacity:1" /><path
       d="M14.25,24.004c-1.241,0-2.25-1.009-2.25-2.25v-4.5c0-0.96,0.615-1.808,1.5-2.121v-0.879c0-2.068,1.682-3.75,3.75-3.75   S21,12.186,21,14.254v0.879c0.885,0.314,1.5,1.162,1.5,2.121v4.5c0,1.241-1.009,2.25-2.25,2.25H14.25z M14.25,16.504   c-0.414,0-0.75,0.336-0.75,0.75v4.5c0,0.414,0.336,0.75,0.75,0.75h6c0.414,0,0.75-0.336,0.75-0.75v-4.5   c0-0.414-0.336-0.75-0.75-0.75H14.25z M19.5,15.004v-0.75c0-1.241-1.009-2.25-2.25-2.25S15,13.013,15,14.254L19.5,15.004z"
       id="path8"
       style="fill:#ffffff;fill-opacity:1" /><circle
       cx="17.25"
       cy="19.504"
       r="1.125"
       id="circle10"
       style="fill:#ffffff;fill-opacity:1" /></g></svg>